[[["smp","smp","squ","tri","smp","smp","nse","poV","sin","squ","saw","tri","nse","poP","poD","poV"],[[{"step":8,"note":60,"velocity":1,"length":8},{"step":56,"note":60,"velocity":1,"length":8},{"step":104,"note":60,"velocity":1,"length":8},{"step":184,"note":60,"velocity":1,"length":8},{"step":232,"note":60,"velocity":1,"length":8},{"step":264,"note":60,"velocity":1,"length":8},{"step":312,"note":60,"velocity":1,"length":8},{"step":360,"note":60,"velocity":1,"length":8},{"step":440,"note":60,"velocity":1,"length":8},{"step":488,"note":60,"velocity":1,"length":8},{"step":520,"note":60,"velocity":1,"length":8},{"step":568,"note":60,"velocity":1,"length":8},{"step":616,"note":60,"velocity":1,"length":8},{"step":696,"note":60,"velocity":1,"length":8},{"step":744,"note":60,"velocity":1,"length":8},{"step":776,"note":60,"velocity":1,"length":8},{"step":824,"note":60,"velocity":1,"length":8},{"step":872,"note":60,"velocity":1,"length":8},{"step":952,"note":60,"velocity":1,"length":8},{"step":1000,"note":60,"velocity":1,"length":8}],[{"step":136,"note":60,"velocity":1,"length":8},{"step":392,"note":60,"velocity":1,"length":8},{"step":648,"note":60,"velocity":1,"length":8},{"step":904,"note":60,"velocity":1,"length":8}],[{"step":8,"note":84,"velocity":1,"length":8},{"step":72,"note":72,"velocity":1,"length":8},{"step":136,"note":72,"velocity":1,"length":8},{"step":200,"note":72,"velocity":1,"length":8},{"step":264,"note":84,"velocity":1,"length":8},{"step":328,"note":72,"velocity":1,"length":8},{"step":392,"note":72,"velocity":1,"length":8},{"step":456,"note":72,"velocity":1,"length":8},{"step":520,"note":84,"velocity":1,"length":8},{"step":584,"note":72,"velocity":1,"length":8},{"step":648,"note":72,"velocity":1,"length":8},{"step":712,"note":72,"velocity":1,"length":8},{"step":776,"note":84,"velocity":1,"length":8},{"step":840,"note":72,"velocity":1,"length":8},{"step":904,"note":72,"velocity":1,"length":8},{"step":968,"note":72,"velocity":1,"length":8}],[{"step":8,"note":36,"velocity":1,"length":256},{"step":232,"note":48,"velocity":1,"length":48},{"step":264,"note":36,"velocity":1,"length":192},{"step":520,"note":36,"velocity":1,"length":256},{"step":744,"note":48,"velocity":1,"length":48},{"step":776,"note":30,"velocity":1,"length":136},{"step":904,"note":29,"velocity":1,"length":128}],[{"step":8,"note":60,"velocity":1,"length":8},{"step":40,"note":60,"velocity":1,"length":8},{"step":72,"note":60,"velocity":1,"length":8},{"step":104,"note":60,"velocity":1,"length":8},{"step":136,"note":60,"velocity":1,"length":8},{"step":141,"note":60,"velocity":1,"length":8},{"step":168,"note":60,"velocity":1,"length":8},{"step":200,"note":60,"velocity":1,"length":8},{"step":232,"note":60,"velocity":1,"length":8},{"step":264,"note":60,"velocity":1,"length":8},{"step":296,"note":60,"velocity":1,"length":8},{"step":328,"note":60,"velocity":1,"length":8},{"step":360,"note":60,"velocity":1,"length":8},{"step":392,"note":60,"velocity":1,"length":8},{"step":397,"note":60,"velocity":1,"length":8},{"step":424,"note":60,"velocity":1,"length":8},{"step":456,"note":60,"velocity":1,"length":8},{"step":461,"note":60,"velocity":1,"length":8},{"step":488,"note":60,"velocity":1,"length":8},{"step":520,"note":60,"velocity":1,"length":8},{"step":552,"note":60,"velocity":1,"length":8},{"step":584,"note":60,"velocity":1,"length":8},{"step":616,"note":60,"velocity":1,"length":8},{"step":648,"note":60,"velocity":1,"length":8},{"step":653,"note":60,"velocity":1,"length":8},{"step":680,"note":60,"velocity":1,"length":8},{"step":712,"note":60,"velocity":1,"length":8},{"step":744,"note":60,"velocity":1,"length":8},{"step":776,"note":60,"velocity":1,"length":8},{"step":808,"note":60,"velocity":1,"length":8},{"step":840,"note":60,"velocity":1,"length":8},{"step":872,"note":60,"velocity":1,"length":8},{"step":904,"note":60,"velocity":1,"length":8},{"step":936,"note":60,"velocity":1,"length":8},{"step":968,"note":60,"velocity":1,"length":8},{"step":973,"note":60,"velocity":1,"length":8},{"step":1000,"note":60,"velocity":1,"length":8}],[{"step":136,"note":60,"velocity":1,"length":8},{"step":392,"note":60,"velocity":1,"length":8},{"step":648,"note":60,"velocity":1,"length":8},{"step":904,"note":60,"velocity":1,"length":8}],[{"step":456,"note":60,"velocity":1,"length":8},{"step":968,"note":60,"velocity":1,"length":8}],[],[],[],[],[],[],[],[],[]],[[0,0,1.3999999761581,0.40000000596046],[0,0,0.69999998807907,0.40000000596046],[0,0,0.60000002384186,0],[0,0,0.20000000298023,0],[0,0,0.69999998807907,0.40000000596046],[0,0,0.69999998807907,0.40000000596046],[0.40000000596046,0,0,0],[0,0,0.30000001192093,0.40000000596046],[0.40000000596046,0,0,0],[0,0,0.30000001192093,0.40000000596046],[0,0,0.30000001192093,0.40000000596046],[0,0,0.30000001192093,0.40000000596046],[0,0,0.30000001192093,0.40000000596046],[0,0,0.30000001192093,0.40000000596046],[0,0,0.30000001192093,0.40000000596046],[0,0,0.30000001192093,0.40000000596046]],[false,false,false,false,false,false,false,false,false,false,false,false,false,false,false,false],[[0,0],[0.5,0],[1,0],[0,0],[0,0],[0,0],[0,0],[0,0],[0,0],[0.5,0],[0,0],[0,0],[0,0],[0,0],[0,0],[0,0]],[-4,0,0,0,0,0,24,0,0,0,0,0,0,0,0,0],[1,1,0.10000000149012,1,1,1,0.40000000596046,1,1,1,1,1,1,1,1,1],[0,0,0,0,-3,0,0,0,0,0,0,0,0,0,0,0],["kick","snare","metronome","","hat","snare2","","","","","","","","","",""]],[18,128],["nanobot567",{"millisecond":496,"second":37,"minute":26,"month":6,"year":2024,"weekday":7,"hour":13,"day":16}]]