[[["smp","smp","smp","tri","smp","poD","smp","poV","sin","squ","saw","tri","nse","poP","poD","poV"],[[{"velocity":1,"note":60,"step":1,"length":1},{"velocity":1,"note":60,"step":21,"length":1},{"velocity":1,"note":60,"step":33,"length":1},{"velocity":1,"note":60,"step":53,"length":1},{"velocity":1,"note":60,"step":65,"length":1},{"velocity":1,"note":60,"step":85,"length":1},{"velocity":1,"note":60,"step":97,"length":1},{"velocity":1,"note":60,"step":117,"length":1},{"velocity":1,"note":60,"step":125,"length":1}],[{"velocity":1,"note":60,"step":9,"length":1},{"velocity":1,"note":60,"step":15,"length":1},{"velocity":1,"note":60,"step":25,"length":1},{"velocity":1,"note":60,"step":41,"length":1},{"velocity":1,"note":60,"step":47,"length":1},{"velocity":1,"note":60,"step":51,"length":1},{"velocity":1,"note":60,"step":57,"length":1},{"velocity":0.5,"note":76,"step":61,"length":1},{"velocity":0.5,"note":76,"step":63,"length":1},{"velocity":1,"note":60,"step":73,"length":1},{"velocity":1,"note":60,"step":79,"length":1},{"velocity":1,"note":60,"step":89,"length":1},{"velocity":1,"note":60,"step":105,"length":1},{"velocity":1,"note":60,"step":111,"length":1},{"velocity":1,"note":60,"step":115,"length":1},{"velocity":1,"note":60,"step":121,"length":1},{"velocity":0.5,"note":76,"step":125,"length":1},{"velocity":0.5,"note":76,"step":127,"length":1}],[{"velocity":1,"note":60,"step":1,"length":1},{"velocity":1,"note":60,"step":5,"length":1},{"velocity":1,"note":60,"step":6,"length":1},{"velocity":1,"note":60,"step":9,"length":1},{"velocity":1,"note":60,"step":13,"length":1},{"velocity":1,"note":60,"step":17,"length":1},{"velocity":1,"note":60,"step":21,"length":1},{"velocity":1,"note":60,"step":25,"length":1},{"velocity":1,"note":60,"step":29,"length":1},{"velocity":1,"note":60,"step":30,"length":1},{"velocity":1,"note":60,"step":33,"length":1},{"velocity":1,"note":60,"step":37,"length":1},{"velocity":1,"note":60,"step":38,"length":1},{"velocity":1,"note":60,"step":41,"length":1},{"velocity":1,"note":60,"step":45,"length":1},{"velocity":1,"note":60,"step":49,"length":1},{"velocity":1,"note":60,"step":53,"length":1},{"velocity":1,"note":60,"step":57,"length":1},{"velocity":1,"note":60,"step":61,"length":1},{"velocity":1,"note":60,"step":62,"length":1},{"velocity":1,"note":60,"step":65,"length":1},{"velocity":1,"note":60,"step":69,"length":1},{"velocity":1,"note":60,"step":70,"length":1},{"velocity":1,"note":60,"step":73,"length":1},{"velocity":1,"note":60,"step":77,"length":1},{"velocity":1,"note":60,"step":81,"length":1},{"velocity":1,"note":60,"step":85,"length":1},{"velocity":1,"note":60,"step":89,"length":1},{"velocity":1,"note":60,"step":93,"length":1},{"velocity":1,"note":60,"step":94,"length":1},{"velocity":1,"note":60,"step":97,"length":1},{"velocity":1,"note":60,"step":101,"length":1},{"velocity":1,"note":60,"step":102,"length":1},{"velocity":1,"note":60,"step":105,"length":1},{"velocity":1,"note":60,"step":109,"length":1},{"velocity":1,"note":60,"step":113,"length":1},{"velocity":1,"note":60,"step":117,"length":1},{"velocity":1,"note":60,"step":121,"length":1},{"velocity":1,"note":60,"step":125,"length":1},{"velocity":1,"note":60,"step":126,"length":1}],[{"velocity":1,"note":36,"step":1,"length":32},{"velocity":1,"note":48,"step":29,"length":4},{"velocity":1,"note":36,"step":33,"length":32},{"velocity":1,"note":48,"step":61,"length":4},{"velocity":1,"note":36,"step":65,"length":32},{"velocity":1,"note":48,"step":93,"length":4},{"velocity":1,"note":43,"step":97,"length":32},{"velocity":1,"note":55,"step":125,"length":4}],[{"velocity":1,"note":60,"step":1,"length":1},{"velocity":1,"note":59,"step":9,"length":1},{"velocity":1,"note":59,"step":17,"length":1},{"velocity":1,"note":60,"step":23,"length":1},{"velocity":1,"note":48,"step":29,"length":1},{"velocity":1,"note":47,"step":31,"length":1},{"velocity":1,"note":60,"step":33,"length":1},{"velocity":1,"note":59,"step":41,"length":1},{"velocity":1,"note":59,"step":49,"length":1},{"velocity":1,"note":60,"step":55,"length":1},{"velocity":1,"note":48,"step":61,"length":1},{"velocity":1,"note":47,"step":63,"length":1},{"velocity":1,"note":60,"step":65,"length":1},{"velocity":1,"note":59,"step":73,"length":1},{"velocity":1,"note":59,"step":81,"length":1},{"velocity":1,"note":60,"step":87,"length":1},{"velocity":1,"note":48,"step":93,"length":1},{"velocity":1,"note":47,"step":95,"length":1},{"velocity":1,"note":60,"step":97,"length":1},{"velocity":1,"note":59,"step":105,"length":1},{"velocity":1,"note":59,"step":113,"length":1},{"velocity":1,"note":60,"step":119,"length":1},{"velocity":1,"note":71,"step":125,"length":1}],[{"velocity":1,"note":36,"step":1,"length":1},{"velocity":1,"note":36,"step":9,"length":1},{"velocity":1,"note":36,"step":17,"length":1},{"velocity":1,"note":36,"step":25,"length":1},{"velocity":1,"note":48,"step":29,"length":1},{"velocity":1,"note":36,"step":33,"length":1},{"velocity":1,"note":36,"step":41,"length":1},{"velocity":1,"note":36,"step":49,"length":1},{"velocity":1,"note":36,"step":57,"length":1},{"velocity":1,"note":48,"step":61,"length":1},{"velocity":1,"note":36,"step":65,"length":1},{"velocity":1,"note":36,"step":73,"length":1},{"velocity":1,"note":36,"step":81,"length":1},{"velocity":1,"note":36,"step":89,"length":1},{"velocity":1,"note":48,"step":93,"length":1},{"velocity":1,"note":43,"step":97,"length":1},{"velocity":1,"note":43,"step":105,"length":1},{"velocity":1,"note":43,"step":113,"length":1},{"velocity":1,"note":43,"step":121,"length":1},{"velocity":1,"note":67,"step":125,"length":1}],[{"velocity":0.30000001192093,"note":60,"step":1,"length":1},{"velocity":1,"note":60,"step":13,"length":1},{"velocity":0.30000001192093,"note":60,"step":17,"length":1},{"velocity":1,"note":60,"step":29,"length":1},{"velocity":0.30000001192093,"note":60,"step":33,"length":1},{"velocity":1,"note":60,"step":45,"length":1},{"velocity":0.30000001192093,"note":60,"step":49,"length":1},{"velocity":1,"note":60,"step":61,"length":1},{"velocity":0.30000001192093,"note":60,"step":65,"length":1},{"velocity":1,"note":60,"step":77,"length":1},{"velocity":0.30000001192093,"note":60,"step":81,"length":1},{"velocity":1,"note":60,"step":93,"length":1},{"velocity":0.30000001192093,"note":60,"step":97,"length":1},{"velocity":1,"note":60,"step":109,"length":1},{"velocity":0.30000001192093,"note":60,"step":113,"length":1},{"velocity":1,"note":60,"step":125,"length":1}],[],[],[],[],[],[],[],[],[]],[[0,0,0.80000001192093,0.40000000596046],[0,0,0.89999997615814,0.40000000596046],[0,0,0.80000001192093,0],[0,0,0.30000001192093,0.40000000596046],[0,0,0.40000000596046,0.40000000596046],[0,0,0.60000002384186,0.30000001192093],[0,0,1,0.40000000596046],[0,0,0.30000001192093,0.40000000596046],[0,0,0.30000001192093,0.40000000596046],[0,0,0.30000001192093,0.40000000596046],[0,0,0.30000001192093,0.40000000596046],[0,0,0.30000001192093,0.40000000596046],[0,0,0.30000001192093,0.40000000596046],[0,0,0.30000001192093,0.40000000596046],[0,0,0.30000001192093,0.40000000596046],[0,0,0.30000001192093,0.40000000596046]],[false,false,false,false,false,false,false,false,false,false,false,false,false,false,false,false],[[0,0],[0.5,0],[0,0],[0,0],[0,0],[0,0],[0,0],[0,0],[0,0],[0.5,0],[0,0],[0,0],[0,0],[0,0],[0,0],[0,0]],[0,0,0,0,0,0,0,0,0,0,0,0,0,0,0,0]],[22,128],["nanobot567",{"weekday":2,"hour":12,"year":2023,"millisecond":349,"day":6,"second":35,"month":6,"minute":27}]]