[[["smp","smp","smp","smp","tri","squ","smp","smp","sin","squ","saw","tri","nse","poP","poD","poV"],[[{"velocity":1,"note":60,"length":8,"step":8},{"velocity":1,"note":60,"length":8,"step":104},{"velocity":1,"note":60,"length":8,"step":264},{"velocity":1,"note":60,"length":8,"step":360},{"velocity":1,"note":60,"length":8,"step":488},{"velocity":1,"note":60,"length":8,"step":504}],[{"velocity":1,"note":60,"length":8,"step":72},{"velocity":1,"note":60,"length":8,"step":168},{"velocity":1,"note":60,"length":8,"step":328},{"velocity":1,"note":60,"length":8,"step":424}],[{"velocity":1,"note":60,"length":8,"step":40},{"velocity":1,"note":60,"length":8,"step":104},{"velocity":1,"note":60,"length":8,"step":168},{"velocity":1,"note":60,"length":8,"step":296},{"velocity":1,"note":60,"length":8,"step":360},{"velocity":1,"note":60,"length":8,"step":424},{"velocity":1,"note":60,"length":8,"step":440},{"velocity":1,"note":60,"length":8,"step":456}],[{"velocity":1,"note":67,"length":8,"step":40},{"velocity":1,"note":62,"length":8,"step":104},{"velocity":1,"note":62,"length":8,"step":168},{"velocity":1,"note":55,"length":8,"step":232},{"velocity":1,"note":67,"length":8,"step":360},{"velocity":1,"note":62,"length":8,"step":456},{"velocity":1,"note":67,"length":8,"step":488}],[{"velocity":1,"note":36,"length":256,"step":8},{"velocity":1,"note":31,"length":256,"step":264},{"velocity":1,"note":43,"length":128,"step":360},{"velocity":1,"note":48,"length":8,"step":488}],[{"velocity":1,"note":60,"length":8,"step":200},{"velocity":1,"note":55,"length":8,"step":232},{"velocity":1,"note":60,"length":8,"step":264},{"velocity":1,"note":67,"length":8,"step":328},{"velocity":1,"note":55,"length":8,"step":360},{"velocity":1,"note":63,"length":8,"step":392},{"velocity":1,"note":62,"length":8,"step":456}],[{"velocity":1,"note":60,"length":8,"step":8},{"velocity":1,"note":60,"length":8,"step":56},{"velocity":1,"note":60,"length":8,"step":104},{"velocity":1,"note":60,"length":8,"step":136},{"velocity":1,"note":60,"length":8,"step":200},{"velocity":1,"note":60,"length":8,"step":264},{"velocity":1,"note":60,"length":8,"step":312},{"velocity":1,"note":60,"length":8,"step":360},{"velocity":1,"note":60,"length":8,"step":392},{"velocity":1,"note":60,"length":8,"step":456}],[{"velocity":1,"note":60,"length":8,"step":424},{"velocity":1,"note":60,"length":8,"step":440},{"velocity":1,"note":60,"length":8,"step":456}],[],[],[],[],[],[],[],[]],[[0,0,0.80000001192093,0.30000001192093],[0,0,0.80000001192093,0.40000000596046],[0,0,0.30000001192093,0.40000000596046],[0,0,2,0.40000000596046],[0,0,0.30000001192093,0.40000000596046],[0,0,0.10000000149012,0.40000000596046],[0,0,0.40000000596046,0.40000000596046],[0,0,0.60000002384186,0.40000000596046],[0,0,0.30000001192093,0.40000000596046],[0,0,0.30000001192093,0.40000000596046],[0,0,0.30000001192093,0.40000000596046],[0,0,0.30000001192093,0.40000000596046],[0,0,0.30000001192093,0.40000000596046],[0,0,0.30000001192093,0.40000000596046],[0,0,0.30000001192093,0.40000000596046],[0,0,0.30000001192093,0.40000000596046]],[false,false,false,false,true,false,false,false,false,false,false,false,false,false,false,false],[[0,0],[0.5,0],[0,0],[0,0],[0,0],[0.40000000596046,0],[0,0],[0,0],[0,0],[0.5,0],[0,0],[0,0],[0,0],[0,0],[0,0],[0,0]],[0,0,0,0,0,0,0,0,0,0,0,0,0,0,0,0],[1,1,1,1,1,1,1,1,1,1,1,1,1,1,1,1],[0,0,-4,0,0,0,0,0,0,0,0,0,0,0,0,0],["kick","snare","hihat","chord","bass","melody","perc","pewpew","","","","","","","",""]],[22,64],["nanobot567",{"second":19,"day":15,"hour":15,"minute":18,"millisecond":785,"month":6,"weekday":6,"year":2024}]]