[[["smp","smp","smp","tri","smp","poD","poD","poV","sin","squ","saw","tri","nse","poP","poD","poV"],[[{"velocity":1,"step":1,"note":60,"length":1},{"velocity":1,"step":21,"note":60,"length":1}],[{"velocity":1,"step":9,"note":60,"length":1},{"velocity":1,"step":15,"note":60,"length":1},{"velocity":1,"step":19,"note":60,"length":1},{"velocity":1,"step":25,"note":60,"length":1},{"velocity":0.5,"step":29,"note":76,"length":1},{"velocity":0.5,"step":31,"note":76,"length":1}],[{"velocity":1,"step":1,"note":60,"length":1},{"velocity":1,"step":5,"note":60,"length":1},{"velocity":1,"step":6,"note":60,"length":1},{"velocity":1,"step":9,"note":60,"length":1},{"velocity":1,"step":13,"note":60,"length":1},{"velocity":1,"step":17,"note":60,"length":1},{"velocity":1,"step":21,"note":60,"length":1},{"velocity":1,"step":25,"note":60,"length":1},{"velocity":1,"step":29,"note":60,"length":1},{"velocity":1,"step":30,"note":60,"length":1}],[{"velocity":1,"step":1,"note":36,"length":32},{"velocity":1,"step":29,"note":48,"length":8}],[{"velocity":1,"step":1,"note":60,"length":1},{"velocity":1,"step":9,"note":59,"length":1},{"velocity":1,"step":17,"note":59,"length":1},{"velocity":1,"step":23,"note":60,"length":1},{"velocity":1,"step":29,"note":48,"length":1},{"velocity":1,"step":31,"note":47,"length":1}],[{"velocity":1,"step":1,"note":36,"length":1},{"velocity":1,"step":9,"note":36,"length":1},{"velocity":1,"step":17,"note":36,"length":1},{"velocity":1,"step":25,"note":36,"length":1},{"velocity":1,"step":29,"note":48,"length":1}],[],[],[],[],[],[],[],[],[],[]],[[0,0,0.80000001192093,0.40000000596046],[0,0,0.89999997615814,0.40000000596046],[0,0,0.80000001192093,0],[0,0,0.30000001192093,0.40000000596046],[0,0,0.40000000596046,0.40000000596046],[0,0,0.60000002384186,0.40000000596046],[0,0,0.30000001192093,0.40000000596046],[0,0,0.30000001192093,0.40000000596046],[0,0,0.30000001192093,0.40000000596046],[0,0,0.30000001192093,0.40000000596046],[0,0,0.30000001192093,0.40000000596046],[0,0,0.30000001192093,0.40000000596046],[0,0,0.30000001192093,0.40000000596046],[0,0,0.30000001192093,0.40000000596046],[0,0,0.30000001192093,0.40000000596046],[0,0,0.30000001192093,0.40000000596046]],[false,false,false,false,false,false,false,false,false,false,false,false,false,false,false,false],[[0,0],[0.5,0],[0,0],[0,0],[0,0],[0,0],[0,0],[0,0],[0,0],[0.5,0],[0,0],[0,0],[0,0],[0,0],[0,0],[0,0]],[0,0,0,0,0,0,0,0,0,0,0,0,0,0,0,0]],[22,32],["nanobot567",{"weekday":3,"year":2023,"second":56,"minute":18,"day":31,"millisecond":626,"month":5,"hour":17}]]