[[["smp","smp","smp","tri","smp","poP","poD","poV","sin","squ","saw","tri","nse","poP","poD","poV"],[[{"step":1,"note":62,"length":6,"velocity":1},{"step":7,"note":62,"length":6,"velocity":1},{"step":13,"note":62,"length":6,"velocity":1},{"step":21,"note":62,"length":6,"velocity":1},{"step":27,"note":60,"length":1,"velocity":1},{"step":31,"note":60,"length":1,"velocity":1}],[{"step":9,"note":60,"length":1,"velocity":1},{"step":25,"note":60,"length":1,"velocity":1},{"step":31,"note":74,"length":1,"velocity":1},{"step":32,"note":67,"length":1,"velocity":1}],[{"step":1,"note":60,"length":1,"velocity":1},{"step":3,"note":60,"length":1,"velocity":1},{"step":5,"note":60,"length":1,"velocity":1},{"step":7,"note":60,"length":1,"velocity":1},{"step":9,"note":60,"length":1,"velocity":1},{"step":11,"note":60,"length":1,"velocity":1},{"step":13,"note":60,"length":1,"velocity":1},{"step":15,"note":60,"length":1,"velocity":1},{"step":17,"note":60,"length":1,"velocity":1},{"step":19,"note":60,"length":1,"velocity":1},{"step":20,"note":60,"length":1,"velocity":1},{"step":21,"note":60,"length":1,"velocity":1},{"step":23,"note":60,"length":1,"velocity":1},{"step":25,"note":60,"length":1,"velocity":1},{"step":27,"note":60,"length":1,"velocity":1},{"step":28,"note":60,"length":1,"velocity":1},{"step":29,"note":60,"length":1,"velocity":1},{"step":31,"note":60,"length":1,"velocity":1}],[{"step":1,"note":36,"length":11,"velocity":1},{"step":7,"note":36,"length":11,"velocity":1},{"step":13,"note":36,"length":11,"velocity":1},{"step":21,"note":36,"length":11,"velocity":1},{"step":27,"note":36,"length":11,"velocity":1},{"step":29,"note":48,"length":3,"velocity":1},{"step":31,"note":60,"length":3,"velocity":1}],[{"step":9,"note":60,"length":1,"velocity":1},{"step":25,"note":60,"length":1,"velocity":1}],[],[],[],[],[],[],[],[],[],[],[]],[[0,0,0.80000001192093,0.40000000596046],[0,0,0.80000001192093,0.40000000596046],[0,0,0.80000001192093,0.40000000596046],[0,0,0.30000001192093,0.40000000596046],[0,0,1,0.40000000596046],[0,0,0.30000001192093,0.40000000596046],[0,0,0.30000001192093,0.40000000596046],[0,0,0.30000001192093,0.40000000596046],[0,0,0.30000001192093,0.40000000596046],[0,0,0.30000001192093,0.40000000596046],[0,0,0.30000001192093,0.40000000596046],[0,0,0.30000001192093,0.40000000596046],[0,0,0.30000001192093,0.40000000596046],[0,0,0.30000001192093,0.40000000596046],[0,0,0.30000001192093,0.40000000596046],[0,0,0.30000001192093,0.40000000596046]],[false,false,false,false,false,false,false,false,false,false,false,false,false,false,false,false],[[0,0],[0.5,0],[0,0],[0,0],[0,0],[0,0],[0,0],[0,0],[0,0],[0.5,0],[0,0],[0,0],[0,0],[0,0],[0,0],[0,0]],[0,0,0,0,0,0,0,0,0,0,0,0,0,0,0,0]],[11,32],["nanobot567",{"millisecond":647,"month":6,"year":2023,"hour":20,"minute":8,"day":14,"second":37,"weekday":3}]]