[[["smp","smp","smp","smp","tri","squ","smp","smp","sin","squ","saw","tri","nse","poP","poD","poV"],[[{"velocity":1,"length":8,"note":60,"step":8},{"velocity":1,"length":8,"note":60,"step":104},{"velocity":1,"length":8,"note":60,"step":264},{"velocity":1,"length":8,"note":60,"step":360},{"velocity":1,"length":8,"note":60,"step":488},{"velocity":1,"length":8,"note":60,"step":504}],[{"velocity":1,"length":8,"note":60,"step":72},{"velocity":1,"length":8,"note":60,"step":168},{"velocity":1,"length":8,"note":60,"step":328},{"velocity":1,"length":8,"note":60,"step":424}],[{"velocity":1,"length":8,"note":60,"step":40},{"velocity":1,"length":8,"note":60,"step":104},{"velocity":1,"length":8,"note":60,"step":168},{"velocity":1,"length":8,"note":60,"step":296},{"velocity":1,"length":8,"note":60,"step":360},{"velocity":1,"length":8,"note":60,"step":424},{"velocity":1,"length":8,"note":60,"step":440},{"velocity":1,"length":8,"note":60,"step":456}],[{"velocity":1,"length":8,"note":67,"step":40},{"velocity":1,"length":8,"note":62,"step":104},{"velocity":1,"length":8,"note":62,"step":168},{"velocity":1,"length":8,"note":55,"step":232},{"velocity":1,"length":8,"note":67,"step":360},{"velocity":1,"length":8,"note":62,"step":456},{"velocity":1,"length":8,"note":67,"step":488}],[{"velocity":1,"length":256,"note":36,"step":8},{"velocity":1,"length":256,"note":31,"step":264},{"velocity":1,"length":128,"note":43,"step":360},{"velocity":1,"length":8,"note":48,"step":488}],[{"velocity":1,"length":8,"note":60,"step":200},{"velocity":1,"length":8,"note":55,"step":232},{"velocity":1,"length":8,"note":60,"step":264},{"velocity":1,"length":8,"note":67,"step":328},{"velocity":1,"length":8,"note":55,"step":360},{"velocity":1,"length":8,"note":63,"step":392},{"velocity":1,"length":8,"note":62,"step":456}],[{"velocity":1,"length":8,"note":60,"step":8},{"velocity":1,"length":8,"note":60,"step":56},{"velocity":1,"length":8,"note":60,"step":104},{"velocity":1,"length":8,"note":60,"step":136},{"velocity":1,"length":8,"note":60,"step":200},{"velocity":1,"length":8,"note":60,"step":264},{"velocity":1,"length":8,"note":60,"step":312},{"velocity":1,"length":8,"note":60,"step":360},{"velocity":1,"length":8,"note":60,"step":392},{"velocity":1,"length":8,"note":60,"step":456}],[{"velocity":1,"length":8,"note":60,"step":424},{"velocity":1,"length":8,"note":60,"step":440},{"velocity":1,"length":8,"note":60,"step":456}],[],[],[],[],[],[],[],[]],[[0,0,0.80000001192093,0.30000001192093],[0,0,0.80000001192093,0.40000000596046],[0,0,0.30000001192093,0.40000000596046],[0,0,2,0.40000000596046],[0,0,0.30000001192093,0.40000000596046],[0,0,0.10000000149012,0.40000000596046],[0,0,0.40000000596046,0.40000000596046],[0,0,0.60000002384186,0.40000000596046],[0,0,0.30000001192093,0.40000000596046],[0,0,0.30000001192093,0.40000000596046],[0,0,0.30000001192093,0.40000000596046],[0,0,0.30000001192093,0.40000000596046],[0,0,0.30000001192093,0.40000000596046],[0,0,0.30000001192093,0.40000000596046],[0,0,0.30000001192093,0.40000000596046],[0,0,0.30000001192093,0.40000000596046]],[false,false,false,false,true,false,false,false,false,false,false,false,false,false,false,false],[[0,0],[0.5,0],[0,0],[0,0],[0,0],[0.40000000596046,0],[0,0],[0,0],[0,0],[0.5,0],[0,0],[0,0],[0,0],[0,0],[0,0],[0,0]],[0,0,0,-3,-3,-3,0,0,0,0,0,0,0,0,0,0],[1,1,1,1,1,1,1,1,1,1,1,1,1,1,1,1],[0,0,-4,0,0,0,0,0,0,0,0,0,0,0,0,0],["kick","snare","hihat","chord","bass","melody","perc","pewpew","","","","","","","",""]],[12,64],["nanobot567",{"millisecond":530,"weekday":3,"second":5,"minute":59,"hour":22,"year":2024,"day":19,"month":6}]]