[[["smp","smp","smp","saw","tri","poP","poD","poV","sin","squ","saw","tri","nse","poP","poD","poV"],[[{"note":60,"length":1,"step":1,"velocity":1},{"note":60,"length":1,"step":17,"velocity":1},{"note":60,"length":1,"step":23,"velocity":1},{"note":60,"length":1,"step":33,"velocity":1},{"note":60,"length":1,"step":49,"velocity":1},{"note":60,"length":1,"step":55,"velocity":1},{"note":60,"length":1,"step":61,"velocity":1}],[{"note":60,"length":1,"step":9,"velocity":1},{"note":60,"length":1,"step":25,"velocity":1},{"note":60,"length":1,"step":41,"velocity":1},{"note":60,"length":1,"step":57,"velocity":1}],[{"note":60,"length":1,"step":1,"velocity":1},{"note":60,"length":1,"step":3,"velocity":1},{"note":60,"length":1,"step":5,"velocity":1},{"note":60,"length":1,"step":7,"velocity":1},{"note":60,"length":1,"step":9,"velocity":1},{"note":60,"length":1,"step":11,"velocity":1},{"note":60,"length":1,"step":13,"velocity":1},{"note":60,"length":1,"step":15,"velocity":1},{"note":60,"length":1,"step":17,"velocity":1},{"note":60,"length":1,"step":19,"velocity":1},{"note":60,"length":1,"step":21,"velocity":1},{"note":60,"length":1,"step":23,"velocity":1},{"note":60,"length":1,"step":25,"velocity":1},{"note":60,"length":1,"step":27,"velocity":1},{"note":60,"length":1,"step":29,"velocity":1},{"note":60,"length":1,"step":31,"velocity":1},{"note":60,"length":1,"step":33,"velocity":1},{"note":60,"length":1,"step":35,"velocity":1},{"note":60,"length":1,"step":37,"velocity":1},{"note":60,"length":1,"step":39,"velocity":1},{"note":60,"length":1,"step":41,"velocity":1},{"note":60,"length":1,"step":43,"velocity":1},{"note":60,"length":1,"step":45,"velocity":1},{"note":60,"length":1,"step":47,"velocity":1},{"note":60,"length":1,"step":49,"velocity":1},{"note":60,"length":1,"step":51,"velocity":1},{"note":60,"length":1,"step":53,"velocity":1},{"note":60,"length":1,"step":55,"velocity":1},{"note":60,"length":1,"step":57,"velocity":1},{"note":60,"length":1,"step":59,"velocity":1},{"note":60,"length":1,"step":60,"velocity":1},{"note":60,"length":1,"step":61,"velocity":1},{"note":60,"length":1,"step":63,"velocity":1}],[{"note":53,"length":1,"step":1,"velocity":1},{"note":53,"length":1,"step":7,"velocity":1},{"note":53,"length":1,"step":13,"velocity":1},{"note":56,"length":1,"step":17,"velocity":1},{"note":55,"length":1,"step":23,"velocity":1},{"note":53,"length":1,"step":29,"velocity":1},{"note":53,"length":1,"step":33,"velocity":1},{"note":53,"length":1,"step":39,"velocity":1},{"note":53,"length":1,"step":45,"velocity":1},{"note":60,"length":1,"step":49,"velocity":1},{"note":53,"length":1,"step":55,"velocity":1},{"note":53,"length":1,"step":61,"velocity":1}],[{"note":41,"length":64,"step":1,"velocity":1}],[],[],[],[],[],[],[],[],[],[],[]],[[0,0,0.80000001192093,0.30000001192093],[0,0,0.80000001192093,0.40000000596046],[0,0,0.80000001192093,0.40000000596046],[0,0,0.30000001192093,0.40000000596046],[0,0,0.30000001192093,0.40000000596046],[0,0,0.40000000596046,0.40000000596046],[0,0,0.30000001192093,0.40000000596046],[0,0,0.30000001192093,0.40000000596046],[0,0,0.30000001192093,0.40000000596046],[0,0,0.30000001192093,0.40000000596046],[0,0,0.30000001192093,0.40000000596046],[0,0,0.30000001192093,0.40000000596046],[0,0,0.30000001192093,0.40000000596046],[0,0,0.30000001192093,0.40000000596046],[0,0,0.30000001192093,0.40000000596046],[0,0,0.30000001192093,0.40000000596046]],[false,false,false,false,false,false,false,false,false,false,false,false,false,false,false,false],[[0,0],[0.5,0],[0,0],[0.80000001192093,0.80000001192093],[0,0],[0,0],[0,0],[0,0],[0,0],[0.5,0],[0,0],[0,0],[0,0],[0,0],[0,0],[0,0]],[0,0,0,0,0,0,0,0,0,0,0,0,0,0,0,0]],[16,64],["nanobot567",{"year":2023,"millisecond":691,"weekday":3,"day":31,"hour":12,"second":15,"month":5,"minute":41}]]