[[["smp","smp","smp","tri","smp","poP","poD","poV","sin","squ","saw","tri","nse","poP","poD","poV"],[[{"step":1,"length":1,"velocity":1,"note":60},{"step":13,"length":1,"velocity":1,"note":60},{"step":17,"length":1,"velocity":1,"note":60},{"step":23,"length":1,"velocity":1,"note":60},{"step":29,"length":1,"velocity":1,"note":60},{"step":33,"length":1,"velocity":1,"note":60},{"step":45,"length":1,"velocity":1,"note":60},{"step":49,"length":1,"velocity":1,"note":60},{"step":55,"length":1,"velocity":1,"note":60},{"step":59,"length":1,"velocity":1,"note":60},{"step":61,"length":1,"velocity":1,"note":60}],[{"step":9,"length":1,"velocity":1,"note":60},{"step":25,"length":1,"velocity":1,"note":60},{"step":41,"length":1,"velocity":1,"note":60},{"step":51,"length":1,"velocity":1,"note":60},{"step":57,"length":1,"velocity":1,"note":60}],[{"step":1,"length":1,"velocity":1,"note":60},{"step":5,"length":1,"velocity":1,"note":60},{"step":9,"length":1,"velocity":1,"note":60},{"step":13,"length":1,"velocity":1,"note":60},{"step":17,"length":1,"velocity":1,"note":60},{"step":21,"length":1,"velocity":1,"note":60},{"step":25,"length":1,"velocity":1,"note":60},{"step":29,"length":1,"velocity":1,"note":60},{"step":33,"length":1,"velocity":1,"note":60},{"step":37,"length":1,"velocity":1,"note":60},{"step":41,"length":1,"velocity":1,"note":60},{"step":45,"length":1,"velocity":1,"note":60},{"step":49,"length":1,"velocity":1,"note":60},{"step":50,"length":1,"velocity":1,"note":60},{"step":51,"length":1,"velocity":1,"note":60},{"step":53,"length":1,"velocity":1,"note":60},{"step":57,"length":1,"velocity":1,"note":60},{"step":58,"length":1,"velocity":1,"note":60},{"step":59,"length":1,"velocity":1,"note":60},{"step":61,"length":1,"velocity":1,"note":60}],[{"step":1,"length":64,"velocity":1,"note":37},{"step":59,"length":4,"velocity":1,"note":61},{"step":61,"length":10,"velocity":1,"note":49}],[{"step":5,"length":1,"velocity":1,"note":60},{"step":13,"length":1,"velocity":1,"note":60},{"step":21,"length":1,"velocity":1,"note":60},{"step":29,"length":1,"velocity":1,"note":60},{"step":37,"length":1,"velocity":1,"note":60},{"step":45,"length":1,"velocity":1,"note":60},{"step":53,"length":1,"velocity":1,"note":60},{"step":61,"length":1,"velocity":1,"note":60}],[],[],[],[],[],[],[],[],[],[],[]],[[0,0,0.89999997615814,0.20000000298023],[0,0,0.60000002384186,0.40000000596046],[0,0,0.80000001192093,0.40000000596046],[0,0,0.30000001192093,0.40000000596046],[0,0,1,0.40000000596046],[0,0,1,0.40000000596046],[0,0,0.30000001192093,0.40000000596046],[0,0,0.30000001192093,0.40000000596046],[0,0,0.30000001192093,0.40000000596046],[0,0,0.30000001192093,0.40000000596046],[0,0,0.30000001192093,0.40000000596046],[0,0,0.30000001192093,0.40000000596046],[0,0,0.30000001192093,0.40000000596046],[0,0,0.30000001192093,0.40000000596046],[0,0,0.30000001192093,0.40000000596046],[0,0,0.30000001192093,0.40000000596046]],[false,false,false,false,false,false,false,false,false,false,false,false,false,false,false,false],[[0,0],[0.5,0],[0,0],[0,0],[0,0],[0,0],[0,0],[0,0],[0,0],[0.5,0],[0,0],[0,0],[0,0],[0,0],[0,0],[0,0]],[0,0,0,-12,0,0,0,0,0,0,0,0,0,0,0,0]],[16,64],["nanobot567",{"day":7,"year":2023,"millisecond":345,"hour":23,"second":59,"month":6,"minute":41,"weekday":3}]]