[[["tri","smp","smp","smp","smp","smp","tri","smp","smp","squ","saw","tri","nse","poP","poD","poV"],[[{"length":1,"velocity":1,"note":71,"step":1},{"length":1,"velocity":1,"note":64,"step":3},{"length":1,"velocity":1,"note":67,"step":5},{"length":1,"velocity":1,"note":66,"step":7},{"length":1,"velocity":1,"note":67,"step":9},{"length":1,"velocity":1,"note":64,"step":11},{"length":1,"velocity":1,"note":72,"step":13},{"length":1,"velocity":1,"note":59,"step":15},{"length":1,"velocity":1,"note":71,"step":17},{"length":1,"velocity":1,"note":64,"step":19},{"length":1,"velocity":1,"note":67,"step":21},{"length":1,"velocity":1,"note":66,"step":23},{"length":1,"velocity":1,"note":67,"step":25},{"length":1,"velocity":1,"note":64,"step":27},{"length":1,"velocity":1,"note":83,"step":29},{"length":1,"velocity":1,"note":59,"step":31}],[{"length":1,"velocity":1,"note":60,"step":1},{"length":1,"velocity":1,"note":60,"step":9},{"length":1,"velocity":1,"note":60,"step":17},{"length":1,"velocity":1,"note":60,"step":25}],[{"length":1,"velocity":1,"note":60,"step":9},{"length":1,"velocity":1,"note":60,"step":25}],[{"length":1,"velocity":1,"note":60,"step":1},{"length":1,"velocity":1,"note":60,"step":3},{"length":1,"velocity":1,"note":60,"step":5},{"length":1,"velocity":1,"note":60,"step":7},{"length":1,"velocity":1,"note":60,"step":9},{"length":1,"velocity":1,"note":60,"step":11},{"length":1,"velocity":1,"note":60,"step":13},{"length":1,"velocity":1,"note":60,"step":15},{"length":1,"velocity":1,"note":60,"step":17},{"length":1,"velocity":1,"note":60,"step":19},{"length":1,"velocity":1,"note":60,"step":21},{"length":1,"velocity":1,"note":60,"step":23},{"length":1,"velocity":1,"note":60,"step":25},{"length":1,"velocity":1,"note":60,"step":27},{"length":1,"velocity":1,"note":60,"step":29},{"length":1,"velocity":1,"note":60,"step":30},{"length":1,"velocity":1,"note":60,"step":31}],[{"length":1,"velocity":1,"note":60,"step":5},{"length":1,"velocity":1,"note":60,"step":13},{"length":1,"velocity":1,"note":60,"step":21},{"length":1,"velocity":1,"note":60,"step":29}],[{"length":1,"velocity":1,"note":58,"step":5},{"length":1,"velocity":1,"note":58,"step":13},{"length":1,"velocity":1,"note":58,"step":21},{"length":1,"velocity":1,"note":58,"step":29}],[{"length":32,"velocity":1,"note":41,"step":1}],[{"length":1,"velocity":1,"note":60,"step":31}],[{"length":1,"velocity":1,"note":60,"step":21},{"length":1,"velocity":1,"note":60,"step":25}],[],[],[],[],[],[],[]],[[0,0,0.30000001192093,0.10000000149012],[0,0,0.80000001192093,0.40000000596046],[0,0,0.89999997615814,0.40000000596046],[0,0,0.89999997615814,0.40000000596046],[0,0,0.80000001192093,0.40000000596046],[0,0,1,0.40000000596046],[0,0,0.30000001192093,0.40000000596046],[0,0,0.80000001192093,0.40000000596046],[0,0,0.89999997615814,0.40000000596046],[0,0,0.30000001192093,0.40000000596046],[0,0,0.30000001192093,0.40000000596046],[0,0,0.30000001192093,0.40000000596046],[0,0,0.30000001192093,0.40000000596046],[0,0,0.30000001192093,0.40000000596046],[0,0,0.30000001192093,0.40000000596046],[0,0,0.30000001192093,0.40000000596046]],[true,false,false,false,false,false,false,false,false,false,false,false,false,false,false,false],[[0,0],[0.5,0],[0,0],[0,0],[0,0],[0,0],[0,0],[0,0],[0,0],[0.5,0],[0,0],[0,0],[0,0],[0,0],[0,0],[0,0]],[-6,0,0,0,0,0,0,0,0,0,0,0,0,0,0,0]],[16,32],["nanobot567",{"millisecond":596,"year":2023,"month":6,"day":6,"minute":36,"hour":14,"weekday":2,"second":27}]]